<?xml version="1.0" standalone="no"?><!DOCTYPE svg PUBLIC "-//W3C//DTD SVG 1.1//EN"
        "http://www.w3.org/Graphics/SVG/1.1/DTD/svg11.dtd">
<svg t="1704503646691" class="icon" viewBox="0 0 1024 1024" version="1.1" xmlns="http://www.w3.org/2000/svg" p-id="3119"
     width="32" height="32">
    <path d="M512 512m-52 0a52 52 0 1 0 104 0 52 52 0 1 0-104 0Z" p-id="3120" fill="#6C707E"></path>
    <path d="M692 512m-52 0a52 52 0 1 0 104 0 52 52 0 1 0-104 0Z" p-id="3121" fill="#6C707E"></path>
    <path d="M332 512m-52 0a52 52 0 1 0 104 0 52 52 0 1 0-104 0Z" p-id="3122" fill="#6C707E"></path>
    <path d="M704 768c-9 0-17.8-3.6-24-11-11.6-13.4-10.2-33.6 3-45.2l228.4-200L683 312c-13.4-11.6-14.6-31.8-3-45.2 11.6-13.2 31.8-14.6 45.2-3l256 224c7 6 11 14.8 11 24s-4 18-11 24l-256 224c-6.2 5.6-13.8 8.2-21.2 8.2z m-384 0c-7.4 0-15-2.6-21-8l-256-224c-7-6-11-14.8-11-24s4-18 11-24l256-224c13.4-11.6 33.6-10.2 45.2 3 11.6 13.4 10.2 33.6-3 45.2L112.6 512l228.4 200c13.4 11.6 14.6 31.8 3 45.2-6.2 7.2-15.2 10.8-24 10.8z"
          p-id="3123" fill="#6C707E"></path>
</svg>