<?xml version="1.0" standalone="no"?><!DOCTYPE svg PUBLIC "-//W3C//DTD SVG 1.1//EN" "http://www.w3.org/Graphics/SVG/1.1/DTD/svg11.dtd"><svg t="1701064838982" class="icon" viewBox="0 0 1024 1024" version="1.1" xmlns="http://www.w3.org/2000/svg" p-id="10973" width="32" height="32" xmlns:xlink="http://www.w3.org/1999/xlink"><path d="M479.061333 717.952a74.858667 74.858667 0 0 0-60.650666 31.04 74.965333 74.965333 0 0 0 84.010666 115.242667 74.88 74.88 0 0 0 51.690667-71.317334c0-10.090667-1.877333-19.669333-5.525333-28.458666a33.024 33.024 0 0 1 6.4-35.434667c1.813333-1.941333 4.757333-5.248 8.704-9.664 32-35.84 117.034667-131.050667 187.690666-167.808a33.28 33.28 0 0 1 28.010667-1.194667 139.562667 139.562667 0 0 0 131.498667-12.714666 139.690667 139.690667 0 0 0 55.04-71.573334l-23.424 19.754667c-5.973333 5.034667-13.504 7.786667-21.312 7.786667l-116.352 0.021333a33.088 33.088 0 0 1-32.704-28.138667l-16.426667-108.842666c-1.322667-8.746667 0.917333-17.664 6.229333-24.746667l34.176-45.717333a139.648 139.648 0 0 0-73.173333 48.917333 139.733333 139.733333 0 0 0-17.301333 143.552 33.066667 33.066667 0 0 1-2.752 32.128c-17.685333 26.133333-109.034667 158.848-170.602667 205.632a33.216 33.216 0 0 1-30.122667 5.141333 76.288 76.288 0 0 0-23.104-3.605333zM45.077333 433.728H21.333333V110.741333a87.104 87.104 0 0 1 87.104-87.104h322.965334v23.744c0 213.376-172.970667 386.346667-386.325334 386.346667z" fill="#02C9ED" p-id="10974"></path><path d="M914.517333 0H109.482667A109.610667 109.610667 0 0 0 0 109.482667v628.629333a109.610667 109.610667 0 0 0 109.482667 109.482667h132.373333a21.333333 21.333333 0 1 0 0-42.666667H109.482667A66.922667 66.922667 0 0 1 42.666667 738.112V109.482667A66.901333 66.901333 0 0 1 109.482667 42.666667h805.034666A66.901333 66.901333 0 0 1 981.333333 109.482667v123.178666a21.333333 21.333333 0 1 0 42.666667 0V109.482667A109.610667 109.610667 0 0 0 914.517333 0zM557.930667 981.333333H260.245333a21.333333 21.333333 0 1 0 0 42.666667h297.706667a21.333333 21.333333 0 1 0-0.021333-42.666667z" p-id="10975"></path><path d="M1002.346667 357.973333a21.397333 21.397333 0 0 0-16.725334 5.376l-75.946666 64.064-90.218667 0.021334-12.373333-81.877334 70.122666-93.738666a21.333333 21.333333 0 0 0-13.333333-33.770667 193.962667 193.962667 0 0 0-187.605333 71.808 193.92 193.92 0 0 0-28.650667 188.074667c-22.954667 33.301333-94.421333 134.357333-144.042667 176.917333a129.173333 129.173333 0 0 0-132.949333 50.410667 129.216 129.216 0 0 0 0.213333 152.042666 129.216 129.216 0 0 0 144.704 46.826667 129.173333 129.173333 0 0 0 89.258667-123.050667c0-12.544-1.706667-24.725333-5.098667-36.352l0.810667-0.917333c26.112-29.248 103.232-115.626667 164.010667-151.274667 57.685333 20.544 121.578667 12.8 172.842666-21.461333a193.877333 193.877333 0 0 0 83.562667-195.712 21.290667 21.290667 0 0 0-18.581333-17.386667z m-88.661334 177.642667a151.125333 151.125333 0 0 1-142.570666 13.781333 21.354667 21.354667 0 0 0-18.069334 0.768c-68.778667 35.776-152.746667 129.834667-184.384 165.248-4.010667 4.501333-7.018667 7.872-8.853333 9.834667a21.290667 21.290667 0 0 0-4.138667 22.826667c4.288 10.24 6.464 21.354667 6.464 33.024a86.570667 86.570667 0 0 1-59.818666 82.474666A86.528 86.528 0 0 1 405.333333 832.213333a86.570667 86.570667 0 0 1-0.128-101.888 86.464 86.464 0 0 1 96.789334-31.701333c6.634667 2.133333 13.888 0.874667 19.456-3.328 60.053333-45.674667 150.464-177.002667 167.978666-202.858667 4.138667-6.122667 4.842667-13.973333 1.792-20.736a151.253333 151.253333 0 0 1 18.709334-155.584 151.552 151.552 0 0 1 109.397333-58.112l-51.733333 69.162667c-3.413333 4.565333-4.864 10.325333-4.010667 15.978667l16.448 108.842666c1.578667 10.432 10.56 18.154667 21.098667 18.154667l116.373333-0.021333a21.248 21.248 0 0 0 13.76-5.034667l49.450667-41.728a151.36 151.36 0 0 1-67.029334 112.256z" p-id="10976"></path><path d="M949.845333 749.013333l-98.517333-91.818666a21.269333 21.269333 0 0 0-20.437333-4.885334c-3.861333 1.109333-94.933333 28.266667-155.413334 130.56a21.290667 21.290667 0 0 0 3.008 25.664l100.181334 103.637334c1.472 1.28 27.008 22.762667 61.994666 22.762666 14.165333 0 29.909333-3.541333 46.250667-13.376 1.429333-0.874667 2.752-1.898667 3.968-3.093333l55.786667-54.976c0.618667-0.597333 1.237333-1.301333 1.770666-1.962667 15.253333-19.242667 33.429333-63.744 4.864-108.437333a23.168 23.168 0 0 0-3.456-4.074667z m-142.805333 131.285334l-86.229333-89.344a266.837333 266.837333 0 0 1 33.365333-40.256l122.197333 122.197333-13.482666 13.290667c-27.008 14.741333-50.88-2.026667-55.850667-5.888z m108.608-46.101334l-8.896 8.789334-119.872-119.893334a244.224 244.224 0 0 1 45.013333-25.685333l86.762667 80.853333c15.872 27.2 0.896 50.624-3.008 55.936zM511.189333 350.314667l-106.602666-106.602667a21.973333 21.973333 0 0 0-30.165334 0L277.333333 340.821333a21.333333 21.333333 0 0 0 0 30.165334l106.581334 106.602666a21.333333 21.333333 0 0 0 30.165333 0l33.472-33.472 70.229333 70.229334a21.269333 21.269333 0 0 0 30.186667 0 21.333333 21.333333 0 0 0 0-30.165334l-70.250667-70.250666 33.472-33.472a21.290667 21.290667 0 0 0 0-30.144z m-112.170666 82.026666l-76.416-76.437333 66.922666-66.944 76.437334 76.437333-66.944 66.944z" p-id="10977"></path></svg>