<?xml version="1.0" standalone="no"?><!DOCTYPE svg PUBLIC "-//W3C//DTD SVG 1.1//EN" "http://www.w3.org/Graphics/SVG/1.1/DTD/svg11.dtd"><svg t="1699255982628" class="icon" viewBox="0 0 1024 1024" version="1.1" xmlns="http://www.w3.org/2000/svg" p-id="36150" width="16" height="16" xmlns:xlink="http://www.w3.org/1999/xlink"><path d="M510.318357 0.14623q137.090479-1.169839 257.58387 68.508682 132.484239 76.551323 201.066036 212.471963l-423.847203-22.300051q-91.393653-5.118045-167.944976 42.552885t-105.651062 131.095055l-157.635772-242.229737q73.114922-90.808733 177.669261-140.23442t218.759847-50.010607zM83.619672 231.481843l192.51159 378.735296q41.163701 81.669368 120.493391 123.929793t167.360057 25.736453l-131.387515 257.58387q-121.078311-18.86365-219.929685-89.931354t-155.661669-180.520742-56.810294-235.064474q0-152.517727 83.424126-280.468841zM989.513556 327.99354q33.12106 85.690689 33.998439 177.376801t-27.710555 174.817779-87.372332 155.369209-140.52688 119.689127q-131.387515 75.966404-284.490162 67.996877l231.335613-355.850325q50.303066-74.796565 47.159125-165.970873t-60.831615-158.513151zM512 339.472583q71.433279 0 121.95569 50.522411t50.522411 121.95569-50.522411 121.95569-121.95569 50.522411-121.95569-50.522411-50.522411-121.95569 50.522411-121.95569 121.95569-50.522411z" fill="#6E6E6E" p-id="36151"></path></svg>