<?xml version="1.0" standalone="no"?><!DOCTYPE svg PUBLIC "-//W3C//DTD SVG 1.1//EN" "http://www.w3.org/Graphics/SVG/1.1/DTD/svg11.dtd"><svg t="1702715597277" class="icon" viewBox="0 0 1024 1024" version="1.1" xmlns="http://www.w3.org/2000/svg" p-id="9814" width="16" height="16" xmlns:xlink="http://www.w3.org/1999/xlink"><path d="M832 544c23.466667 2.133333 44.8 8.533333 64 17.066667v-17.066667c0-155.733333-91.733333-292.266667-224-356.266667 0 23.466667-6.4 44.8-14.933333 64 104.533333 55.466667 174.933333 166.4 174.933333 292.266667zM172.8 567.466667c0-8.533333-2.133333-17.066667-2.133333-23.466667 0-125.866667 70.4-236.8 174.933333-292.266667-8.533333-19.2-14.933333-40.533333-14.933333-64C198.4 251.733333 106.666667 388.266667 106.666667 544c0 17.066667 2.133333 32 4.266666 49.066667 17.066667-12.8 38.4-21.333333 61.866667-25.6zM686.933333 819.2c-53.333333 36.266667-117.333333 55.466667-185.6 55.466667-57.6 0-110.933333-14.933333-160-40.533334-12.8 19.2-29.866667 34.133333-46.933333 44.8 59.733333 36.266667 130.133333 59.733333 206.933333 59.733334 87.466667 0 168.533333-29.866667 232.533334-76.8-17.066667-10.666667-34.133333-25.6-46.933334-42.666667z" p-id="9815" fill="#2c2c2c"></path><path d="M501.333333 181.333333m-96 0a96 96 0 1 0 192 0 96 96 0 1 0-192 0Z" p-id="9816" fill="#2c2c2c"></path><path d="M202.666667 736m-96 0a96 96 0 1 0 192 0 96 96 0 1 0-192 0Z" p-id="9817" fill="#2c2c2c"></path><path d="M821.333333 714.666667m-96 0a96 96 0 1 0 192 0 96 96 0 1 0-192 0Z" p-id="9818" fill="#2c2c2c"></path><path d="M328.533333 605.866667v6.4c0 10.666667 6.4 17.066667 17.066667 17.066666 8.533333 0 14.933333-4.266667 19.2-12.8l8.533333-23.466666h70.4l6.4 23.466666c4.266667 8.533333 10.666667 12.8 19.2 12.8 10.666667 0 17.066667-4.266667 17.066667-14.933333 0-2.133333 0-6.4-2.133333-10.666667l-49.066667-138.666666c-6.4-14.933333-14.933333-21.333333-27.733333-21.333334-12.8 0-21.333333 8.533333-27.733334 21.333334l-51.2 140.8z m78.933334-121.6l23.466666 74.666666H384l23.466667-74.666666zM518.4 445.866667c-12.8 0-19.2 6.4-19.2 19.2v145.066666c0 12.8 6.4 17.066667 19.2 17.066667s19.2-6.4 19.2-17.066667v-42.666666h27.733333c40.533333-2.133333 61.866667-23.466667 64-61.866667-2.133333-38.4-23.466667-57.6-64-61.866667h-46.933333z m70.4 61.866666c-2.133333 17.066667-10.666667 25.6-25.6 27.733334h-25.6v-53.333334h25.6c17.066667 0 25.6 8.533333 25.6 25.6zM659.2 629.333333c12.8 0 19.2-6.4 19.2-17.066666v-145.066667c0-12.8-6.4-19.2-19.2-19.2-12.8 0-19.2 6.4-19.2 19.2v145.066667c2.133333 10.666667 8.533333 17.066667 19.2 17.066666z" p-id="9819" fill="#2c2c2c"></path></svg>