<?xml version="1.0" standalone="no"?><!DOCTYPE svg PUBLIC "-//W3C//DTD SVG 1.1//EN" "http://www.w3.org/Graphics/SVG/1.1/DTD/svg11.dtd"><svg t="1699256204534" class="icon" viewBox="0 0 1024 1024" version="1.1" xmlns="http://www.w3.org/2000/svg" p-id="45422" width="16" height="16" xmlns:xlink="http://www.w3.org/1999/xlink"><path d="M602.769818 668.713204l-42.24515 0c0 0-5.4225-3.353374-5.4225-12.811794l0-88.636736-47.666626 0.623193 0 98.599645c0 0 4.588505 26.085098 39.157835 26.085098l80.043011 0L626.636389 573.371766l-23.833825 0 0 95.341439L602.769818 668.713204zM602.769818 668.713204" fill="#2c2c2c" p-id="45423"></path><path d="M459.733101 573.343113l-44.704155 0c0 0-41.268916-1.63422-55.735395 45.148269-5.006014 31.216979 4.477988 43.103704 6.139837 47.077202 1.658779 3.9121 14.999622 26.977421 48.467875 26.977421l69.63394 0L483.535203 513.190105l-23.833825-0.533143 0 60.715827L459.733101 573.343113zM459.733101 668.713204l-35.245735 0c0 0-21.703301-0.598634-28.404933-25.616424-3.345188-11.174504 0.533143-21.816888 2.285043-26.88737 1.627057-5.008061 8.893554-19.030425 23.893176-19.030425l37.47245 0 0 71.502497L459.733101 668.713204zM459.733101 668.713204" fill="#2c2c2c" p-id="45424"></path><path d="M510.54537 53.6632c-247.506047 0-448.145693 200.665229-448.145693 448.173322 0 247.50707 200.666252 448.145693 448.145693 448.145693 247.475348 0 448.145693-200.667276 448.145693-448.145693C958.691063 254.361175 758.051417 53.6632 510.54537 53.6632L510.54537 53.6632zM537.907555 291.50719c3.555989-32.610722 42.538839-82.621742 73.755818-75.447343 31.125905 7.083326 59.555397 48.41057 53.806463 83.951017-5.632277 35.57831-33.913391 82.563414-77.939093 76.813456C543.629883 371.193067 533.66902 331.377246 537.907555 291.50719L537.907555 291.50719zM445.710736 201.798029c32.907481 0 59.558467 37.888935 59.558467 84.698031 0 46.839795-26.650987 84.756359-59.558467 84.756359-32.876782 0-59.556421-37.888935-59.556421-84.756359C386.154315 239.71357 412.833955 201.798029 445.710736 201.798029L445.710736 201.798029zM260.01136 402.468374c0 0 7.03216-69.698408 55.292304-74.026994 38.331004-3.319605 66.552765 38.630832 69.483514 62.641689 1.810229 15.564487 9.93528 86.800925-49.711192 99.639325-59.47251 12.773931-81.613786-56.033178-75.091232-88.25402L260.01136 402.468374zM713.790354 702.801581c-32.609699 76.870762-151.813614 36.939307-151.813614 36.939307s-43.962258-14.115486-94.951559-2.818185c-51.021024 11.416004-94.982258 7.087419-94.982258 7.087419s-59.676148 1.453095-76.662007-73.935919C278.394033 594.59923 354.937336 553.273009 360.658641 546.249035c5.634324-7.147794 45.357024-34.18559 70.852698-76.842109 25.610284-42.688241 102.157681-76.871785 156.020426 7.051603 39.756469 56.952106 107.820658 109.659539 107.820658 109.659539S746.372423 625.960495 713.790354 702.801581L713.790354 702.801581zM703.829492 527.687284c-65.278749 1.483794-68.065212-44.112684-68.065212-76.781734 0-34.211173 7.024997-82.621742 59.58712-82.621742 52.472072 0 66.580394 51.287083 66.580394 68.305689 0 17.161868 7.14677 89.673345-58.130955 91.097788L703.829492 527.687284zM703.829492 527.687284" fill="#2c2c2c" p-id="45425"></path></svg>