<?xml version="1.0" standalone="no"?><!DOCTYPE svg PUBLIC "-//W3C//DTD SVG 1.1//EN"
        "http://www.w3.org/Graphics/SVG/1.1/DTD/svg11.dtd">
<svg t="1705741219588" class="icon" viewBox="0 0 1024 1024" version="1.1" xmlns="http://www.w3.org/2000/svg"
     p-id="21801" width="16" height="16">
    <path d="M334.933333 128h85.333334v170.666667h-85.333334zM590.933333 128h85.333334v170.666667h-85.333334z"
          fill="#6E6E6E" p-id="21802"></path>
    <path d="M533.333333 810.666667H256c-23.466667 0-42.666667-19.2-42.666667-42.666667V426.666667h597.333334v78.933333c36.266667 19.2 66.133333 46.933333 85.333333 81.066667V256c0-46.933333-38.4-85.333333-85.333333-85.333333H213.333333c-46.933333 0-85.333333 38.4-85.333333 85.333333v554.666667c0 46.933333 38.4 85.333333 85.333333 85.333333h428.8c-44.8-14.933333-83.2-44.8-108.8-85.333333zM213.333333 298.666667c0-23.466667 19.2-42.666667 42.666667-42.666667h512c23.466667 0 42.666667 19.2 42.666667 42.666667v42.666666H213.333333v-42.666666z"
          fill="#6E6E6E" p-id="21803"></path>
    <path d="M710.4 480c-117.333333 0-213.333333 96-213.333333 213.333333s96 213.333333 213.333333 213.333334 213.333333-96 213.333333-213.333334-96-213.333333-213.333333-213.333333z m0 341.333333c-70.4 0-128-57.6-128-128s57.6-128 128-128 128 57.6 128 128c0 72.533333-57.6 128-128 128z"
          fill="#6E6E6E" p-id="21804"></path>
    <path d="M682.666667 586.666667h64v128h-64z" fill="#6E6E6E" p-id="21805"></path>
    <path d="M681.685333 715.648v-64h128v64z" fill="#6E6E6E" p-id="21806"></path>
</svg>