<?xml version="1.0" standalone="no"?><!DOCTYPE svg PUBLIC "-//W3C//DTD SVG 1.1//EN"
        "http://www.w3.org/Graphics/SVG/1.1/DTD/svg11.dtd">
<svg t="1709696543451" class="icon" viewBox="0 0 1024 1024" version="1.1" xmlns="http://www.w3.org/2000/svg" p-id="3589"
     width="16" height="16">
    <path d="M848.7936 673.9968h-47.3088v-37.376h47.3088V292.4544h-47.3088v-37.376h47.3088c20.7872-0.2048 37.888 16.4864 37.9904 37.376v344.1664c-0.2048 20.8896-17.2032 37.5808-37.9904 37.376z m-106.8032 52.9408H286.0032c-20.7872 0.2048-37.7856-16.5888-37.9904-37.376V241.152c0.2048-20.7872 17.2032-37.5808 37.9904-37.376h456.0896c20.7872-0.2048 37.888 16.4864 38.0928 37.2736V689.4592c-0.2048 20.7872-17.2032 37.4784-37.9904 37.376h-0.2048z m-455.9872-37.376h1.536l-1.536-1.4336v1.4336z m455.9872-448.4096H286.0032v375.9104l16.4864-18.5344 109.568-99.6352 109.568 99.6352 72.9088-62.2592 147.5584 153.1904-0.1024-448.3072zM550.6048 394.3424c-0.6144-39.2192 30.72-71.5776 69.9392-72.192 39.2192-0.6144 71.5776 30.72 72.192 69.9392 0.6144 39.2192-30.72 71.5776-69.9392 72.192h-1.1264c-38.8096 0-70.4512-31.1296-71.0656-69.9392zM140.0832 636.416V292.2496c0.2048-20.7872 17.2032-37.5808 37.9904-37.376h47.5136v37.376h-47.5136v344.1664h47.5136V673.792h-47.5136c-20.7872 0.2048-37.888-16.5888-37.9904-37.376z m271.9744 144.1792c11.1616-0.1024 20.2752 8.8064 20.3776 19.968 0.1024 11.1616-8.8064 20.2752-19.968 20.3776-11.1616 0.1024-20.2752-8.8064-20.3776-19.968v-0.2048c0.1024-11.0592 9.0112-19.968 19.968-20.1728z m93.3888 0c11.1616 0 20.1728 9.0112 20.2752 20.1728 0 11.1616-9.0112 20.1728-20.1728 20.2752-11.1616 0-20.1728-9.0112-20.2752-20.1728 0-11.1616 9.0112-20.2752 20.1728-20.2752z m93.5936 0c11.1616 0 20.1728 9.0112 20.1728 20.1728 0 11.1616-9.0112 20.1728-20.1728 20.1728-11.1616 0-20.1728-9.0112-20.1728-20.1728 0-5.3248 2.1504-10.4448 5.8368-14.2336 3.8912-3.7888 9.0112-5.9392 14.336-5.9392z"
          p-id="3590" fill="#CED0D6"></path>
</svg>