<?xml version="1.0" standalone="no"?><!DOCTYPE svg PUBLIC "-//W3C//DTD SVG 1.1//EN"
        "http://www.w3.org/Graphics/SVG/1.1/DTD/svg11.dtd">
<svg t="1701064858985" class="icon" viewBox="0 0 1024 1024" version="1.1" xmlns="http://www.w3.org/2000/svg"
     p-id="11244" width="16" height="16">
    <path d="M431.98668 862.032087l68.435224 95.655718 68.435223-95.655718v-194.809993H431.98668zM511.984214 246.072413a131.302618 131.302618 0 0 1-131.302618-131.302618V21.332676h262.605236v93.437119A131.302618 131.302618 0 0 1 511.984214 246.072413z"
          fill="#02C9ED" p-id="11245"></path>
    <path d="M1002.635752 188.218197H753.278107V21.332676a21.332676 21.332676 0 0 0-21.332675-21.332676H292.022996a21.332676 21.332676 0 0 0-21.332676 21.332676v166.885521H21.332676a21.332676 21.332676 0 0 0 0 42.665351h249.357644v166.885521a21.332676 21.332676 0 0 0 21.332676 21.332675H731.924099a21.332676 21.332676 0 0 0 21.332676-21.332675v-166.885521H1002.635752a21.332676 21.332676 0 1 0 0-42.665351z m-292.022996 188.218196H313.355672V42.665351H710.591423v333.771042zM613.506417 489.755566h-203.044406a21.332676 21.332676 0 0 0 0 42.665351h203.044406a21.332676 21.332676 0 1 0 0-42.665351zM613.506417 600.941471h-203.044406a21.332676 21.332676 0 0 0-21.332676 21.332676v238.520645c0 4.458529 1.386624 8.789062 3.989211 12.415617l101.522203 141.84096a21.29001 21.29001 0 0 0 34.68693 0l101.522203-141.84096c2.581254-3.626555 3.98921-7.957088 3.98921-12.415617V622.274147a21.332676 21.332676 0 0 0-21.332675-21.332676z m-21.332676 252.9842L511.984214 965.986215l-80.189528-112.060544V643.606822h160.379055v210.318849z"
          p-id="11246"></path>
</svg>