<?xml version="1.0" standalone="no"?><!DOCTYPE svg PUBLIC "-//W3C//DTD SVG 1.1//EN"
        "http://www.w3.org/Graphics/SVG/1.1/DTD/svg11.dtd">
<svg t="1705557942691" class="icon" viewBox="0 0 1024 1024" version="1.1" xmlns="http://www.w3.org/2000/svg"
     p-id="10607" width="16" height="16">
    <path d="M512 957.217391c244.869565 0 445.217391-200.347826 445.217391-445.217391s-200.347826-445.217391-445.217391-445.217391-445.217391 200.347826-445.217391 445.217391 200.347826 445.217391 445.217391 445.217391z m0 66.782609C227.06087 1024 0 796.93913 0 512S227.06087 0 512 0 1024 227.06087 1024 512 796.93913 1024 512 1024z"
          p-id="10608" fill="#6C707E"></path>
    <path d="M365.078261 445.217391H307.2v-13.356521c0-13.356522-4.452174-22.26087-8.904348-31.165218-4.452174-8.904348-13.356522-13.356522-26.713043-13.356522-8.904348 0-13.356522 0-17.808696 4.452174s-8.904348 4.452174-13.356522 8.904348c-4.452174 4.452174-4.452174 8.904348-4.452174 17.808696v35.617391c0 4.452174 0 8.904348 4.452174 13.356522s4.452174 8.904348 8.904348 8.904348c4.452174 4.452174 8.904348 4.452174 17.808696 8.904348l40.069565 17.808695c13.356522 4.452174 22.26087 8.904348 31.165217 17.808696 8.904348 4.452174 13.356522 13.356522 17.808696 22.260869 4.452174 8.904348 4.452174 17.808696 8.904348 31.165218v35.617391c0 17.808696 0 31.165217-4.452174 44.521739s-8.904348 26.713043-13.356522 35.617392c-13.356522 4.452174-22.26087 13.356522-35.617391 22.260869s-26.713043 8.904348-44.521739 8.904348c-13.356522 0-26.713043-4.452174-35.617392-8.904348-13.356522-4.452174-22.26087-8.904348-31.165217-17.808696s-13.356522-17.808696-17.808696-26.713043c-4.452174-13.356522-4.452174-26.713043-4.452173-40.069565v-22.26087h53.426086v17.808696c0 8.904348 4.452174 17.808696 8.904348 26.713043 4.452174 8.904348 17.808696 13.356522 31.165218 13.356522 8.904348 0 17.808696 0 22.260869-4.452174 4.452174-4.452174 8.904348-4.452174 13.356522-13.356522 4.452174-4.452174 4.452174-8.904348 4.452174-17.808695v-22.26087-26.713043c0-4.452174 0-13.356522-4.452174-13.356522-4.452174-4.452174-4.452174-8.904348-8.904348-8.904348-4.452174-4.452174-8.904348-4.452174-17.808695-8.904348l-40.069566-13.356521c-22.26087-8.904348-40.069565-22.26087-48.973913-40.069566-8.904348-13.356522-13.356522-35.617391-13.356521-57.878261 0-13.356522 0-26.713043 4.452173-40.069565 4.452174-13.356522 8.904348-22.26087 17.808696-31.165217 8.904348-8.904348 17.808696-17.808696 26.713044-22.26087s26.713043-8.904348 40.069565-8.904348c13.356522 0 26.713043 4.452174 35.617391 8.904348 13.356522 4.452174 22.26087 13.356522 31.165217 17.808696 22.26087 17.808696 31.165217 35.617391 31.165218 57.878261v26.713043z m89.043478 182.539131c0 13.356522 4.452174 22.26087 8.904348 31.165217 8.904348 4.452174 17.808696 8.904348 26.713043 8.904348h13.356522l-26.713043-17.808696 26.713043-31.165217 22.26087 17.808696V422.956522c0-13.356522-4.452174-22.26087-8.904348-31.165218-8.904348-4.452174-17.808696-8.904348-26.713044-8.904347s-17.808696 4.452174-26.713043 8.904347c-8.904348 4.452174-8.904348 17.808696-8.904348 31.165218v204.8zM400.695652 422.956522c0-13.356522 4.452174-26.713043 8.904348-40.069565 4.452174-8.904348 13.356522-22.26087 22.26087-26.713044 8.904348-8.904348 17.808696-13.356522 31.165217-17.808696s22.26087-4.452174 31.165217-4.452174 22.26087 0 31.165218 4.452174 22.26087 8.904348 31.165217 17.808696c8.904348 8.904348 13.356522 17.808696 22.26087 31.165217 4.452174 13.356522 8.904348 26.713043 8.904348 40.069566v200.347826c0 13.356522-4.452174 26.713043-8.904348 40.069565l35.617391 26.713043-26.713043 31.165218-31.165218-26.713044c-17.808696 13.356522-35.617391 17.808696-57.878261 17.808696-8.904348 0-22.26087 0-31.165217-4.452174-8.904348-4.452174-22.26087-8.904348-31.165218-17.808696-8.904348-8.904348-17.808696-17.808696-22.260869-26.713043s-13.356522-26.713043-13.356522-40.069565V422.956522z m231.513044 293.843478V333.913043h53.426087v325.008696h106.852174V712.347826h-160.278261z"
          p-id="10609" fill="#6C707E"></path>
</svg>