<?xml version="1.0" standalone="no"?><!DOCTYPE svg PUBLIC "-//W3C//DTD SVG 1.1//EN" "http://www.w3.org/Graphics/SVG/1.1/DTD/svg11.dtd"><svg t="1699253966056" class="icon" viewBox="0 0 1024 1024" version="1.1" xmlns="http://www.w3.org/2000/svg" p-id="11365" width="16" height="16" xmlns:xlink="http://www.w3.org/1999/xlink"><path d="M258.438095 448.609524h97.52381V390.095238h107.27619v438.857143h97.52381V390.095238h107.27619v58.514286h97.52381V292.571429H258.438095z" p-id="11366" fill="#6C707E"></path><path d="M512 4.87619C229.180952 4.87619 4.87619 229.180952 4.87619 512c0 282.819048 229.180952 507.12381 507.12381 507.12381 282.819048 0 507.12381-229.180952 507.12381-507.12381C1019.12381 229.180952 794.819048 4.87619 512 4.87619z m0 916.72381c-229.180952 0-409.6-185.295238-409.6-409.6 0-229.180952 185.295238-409.6 409.6-409.6 229.180952 0 409.6 185.295238 409.6 409.6 0 229.180952-180.419048 409.6-409.6 409.6z" p-id="11367" fill="#6C707E"></path></svg>