<?xml version="1.0" standalone="no"?><!DOCTYPE svg PUBLIC "-//W3C//DTD SVG 1.1//EN"
        "http://www.w3.org/Graphics/SVG/1.1/DTD/svg11.dtd">
<svg t="1699253834589" class="icon" viewBox="0 0 1029 1024" version="1.1" xmlns="http://www.w3.org/2000/svg" p-id="6319"
     width="16.078125" height="16">
    <path d="M518.756 1006.627c-275.214 0-498.324-222.239-498.324-496.379s223.11-496.379 498.324-496.379c275.214 0 498.324 222.239 498.324 496.379 0 274.143-223.11 496.379-498.324 496.379zM518.756 60.586c-249.409 0-451.603 201.438-451.603 449.892 0 248.477 202.201 449.911 451.603 449.911 249.409 0 451.603-201.438 451.603-449.911 0-248.459-202.201-449.892-451.603-449.892zM781.688 504.006c-72.039-12.083-132.912-31.664-182.62-58.711-53.167 25.73-116.528 47.012-190.128 63.897-7.319-14.961-15.588-29.356-24.836-43.168 66.060-9.596 124.053-25.035 173.943-46.332-43.356-31.289-75.621-69.93-96.801-115.987h-39.587v-39.147h345.004v38.572c-26.775 45.292-67.522 84.417-122.217 117.418 45.253 19.58 99.107 32.425 161.524 38.556-8.49 14.587-16.57 29.557-24.274 44.897zM715.225 303.702h-208.037c22.347 38.556 53.833 70.219 94.477 94.961 46.422-25.513 84.279-57.169 113.551-94.961zM261.596 277.813l35.237-28.201c31.595 31.458 61.639 62.928 90.147 94.388l-39.866 33.387c-26.209-32.989-54.702-66.197-85.52-99.572zM344.221 714.095c15.789-10.733 33.713-23.404 53.737-37.98 0.394 14.579 1.743 31.081 4.045 49.505-38.137 23.394-69.734 45.268-94.775 65.605l-26.58-36.828c13.093-11.899 19.65-28.775 19.65-50.659v-225.627h-70.501v-41.438h114.411v277.424zM577.687 583.441h-140.995v-39.133h140.995v-60.434h43.931v60.434h155.443v39.133h-155.443v70.219h182.608v39.147h-182.608v110.497h-43.931v-110.497h-165.273v-39.147h165.273v-70.219z"
          p-id="6320" fill="#CED0D6"></path>
</svg>